kopru_tumbacak
version=1
nRows=83
nColumns=15
inDegrees=yes
endheader
time	sacrum_pitch	sacrum_roll	sacrum_yaw	sacrum_x	sacrum_y	sacrum_z	sacroiliac_flx	hip_flx	hip_add	hip_int	knee_flx	ankle_flx	ankle_add	ankle_int
1.500000	20.633716	0.000000	0.000000	0.000000	0.050000	0.000000	3.700000	-8.738228	-10.000000	0.000000	-91.500000	-33.500000	-5.000000	0.000000
1.504950	20.633716	0.000000	0.000000	0.000000	0.050000	0.000000	3.700000	-8.813332	-10.000000	0.000000	-91.463736	-33.705078	-5.000000	0.000000
1.509900	20.633716	0.000000	0.000000	0.000000	0.050000	0.000000	3.700000	-8.893500	-10.000000	0.000000	-91.359680	-33.500000	-5.000000	0.000000
1.514850	20.633716	0.000000	0.000000	0.000000	0.050000	0.000000	3.700000	-8.718731	-10.000000	0.000000	-91.500000	-33.658498	-5.000000	0.000000
1.519800	20.633716	0.000000	0.000000	0.000000	0.050000	0.000000	3.700000	-8.583727	-10.000000	0.000000	-91.248523	-33.500000	-5.000000	0.000000
1.524750	20.633716	0.000000	0.000000	0.000000	0.050000	0.000000	3.700000	-8.500000	-10.000000	0.000000	-91.500000	-33.686916	-5.000000	0.000000
1.529700	20.633716	0.000000	0.000000	0.000000	0.050000	0.000000	3.700000	-8.789016	-10.000000	0.000000	-91.467158	-33.660009	-5.000000	0.000000
1.534650	20.633716	0.000000	0.000000	0.000000	0.050000	0.000000	3.700000	-8.573865	-10.000000	0.000000	-91.500000	-33.500000	-5.000000	0.000000
1.539600	20.633716	0.000000	0.000000	0.000000	0.050000	0.000000	3.700000	-8.500000	-10.000000	0.000000	-91.221833	-33.647139	-5.000000	0.000000
1.544550	20.633716	0.000000	0.000000	0.000000	0.050000	0.000000	3.700000	-8.758365	-10.000000	0.000000	-91.471560	-33.883015	-5.000000	0.000000
1.549500	20.633716	0.000000	0.000000	0.000000	0.050000	0.000000	3.700000	-8.500000	-10.000000	0.000000	-91.074505	-33.959206	-5.000000	0.000000
1.554450	20.633716	0.000000	0.000000	0.000000	0.050000	0.000000	3.700000	-8.528432	-10.000000	0.000000	-91.419105	-33.736776	-5.000000	0.000000
1.559400	20.633716	0.000000	0.000000	0.000000	0.050000	0.000000	3.700000	-8.544463	-10.000000	0.000000	-91.477119	-33.615126	-5.000000	0.000000
1.564350	20.633716	0.000000	0.000000	0.000000	0.050000	0.000000	3.700000	-8.987901	-10.000000	0.000000	-91.203461	-33.743191	-5.000000	0.000000
1.569300	20.633716	0.000000	0.000000	0.000000	0.050000	0.000000	3.700000	-8.623732	-10.000000	0.000000	-91.348021	-33.305690	-5.000000	0.000000
1.574250	20.633716	0.000000	0.000000	0.000000	0.050000	0.000000	3.700000	-8.758841	-10.000000	0.000000	-91.151731	-32.973087	-5.000000	0.000000
1.579200	20.633716	0.000000	0.000000	0.000000	0.050000	0.000000	3.700000	-8.525742	-10.000000	0.000000	-91.484156	-31.924288	-5.000000	0.000000
1.584150	20.633716	0.000000	0.000000	0.000000	0.050000	0.000000	3.700000	-8.956447	-10.000000	0.000000	-91.343810	-32.014880	-5.000000	0.000000
1.589100	20.633716	0.000000	0.000000	0.000000	0.050000	0.000000	3.700000	-8.933114	-10.000000	0.000000	-91.457477	-30.782501	-5.000000	0.000000
1.594050	20.633716	0.000000	0.000000	0.000000	0.050000	0.000000	3.700000	-8.745371	-10.000000	0.000000	-91.255953	-28.845785	-5.000000	0.000000
1.599000	20.633716	0.000000	0.000000	0.000000	0.050000	0.000000	3.700000	-8.531448	-10.000000	0.000000	-91.501007	-27.093813	-5.000000	0.000000
1.603950	20.633716	0.000000	0.000000	0.000000	0.050000	0.000000	3.700000	-8.193233	-10.000000	0.000000	-91.992722	-25.120147	-5.000000	0.000000
1.608900	20.633716	0.000000	0.000000	0.000000	0.050000	0.000000	3.700000	-7.704649	-10.000000	0.000000	-92.692133	-23.128541	-5.000000	0.000000
1.613850	20.633716	0.000000	0.000000	0.000000	0.050000	0.000000	3.700000	-7.025668	-10.000000	0.000000	-93.564158	-20.645547	-5.000000	0.000000
1.618800	20.633716	0.000000	0.000000	0.000000	0.050000	0.000000	3.700000	-6.117269	-10.000000	0.000000	-94.675809	-18.051788	-5.000000	0.000000
1.623750	20.633716	0.000000	0.000000	0.000000	0.050000	0.000000	3.700000	-4.986758	-10.000000	0.000000	-96.009467	-15.286295	-5.000000	0.000000
1.628700	20.633716	0.000000	0.000000	0.000000	0.050000	0.000000	3.700000	-3.638243	-10.000000	0.000000	-97.555259	-12.361756	-5.000000	0.000000
1.633650	20.633716	0.000000	0.000000	0.000000	0.050000	0.000000	3.700000	-2.077302	-10.000000	0.000000	-99.306591	-9.296615	-5.000000	0.000000
1.638600	20.633716	0.000000	0.000000	0.000000	0.050000	0.000000	3.700000	-0.303706	-10.000000	0.000000	-101.261923	-6.109981	-5.000000	0.000000
1.643550	20.633716	0.000000	0.000000	0.000000	0.050000	0.000000	3.700000	1.678204	-10.000000	0.000000	-103.403386	-2.810159	-5.000000	0.000000
1.648500	20.633716	0.000000	0.000000	0.000000	0.050000	0.000000	3.700000	3.842365	-10.000000	0.000000	-105.692747	0.595732	-5.000000	0.000000
1.653450	20.633716	0.000000	0.000000	0.000000	0.050000	0.000000	3.700000	6.157045	-10.000000	0.000000	-108.131610	4.126384	-5.000000	0.000000
1.658400	20.633716	0.000000	0.000000	0.000000	0.050000	0.000000	3.700000	8.617564	-10.000000	0.000000	-110.820412	7.806425	-5.000000	0.000000
1.663350	20.633716	0.000000	0.000000	0.000000	0.050000	0.000000	3.700000	11.009720	-10.000000	0.000000	-113.461790	11.072724	-5.000000	0.000000
1.668300	20.633716	0.000000	0.000000	0.000000	0.050000	0.000000	3.700000	12.673430	-10.000000	0.000000	-115.447283	13.076076	-5.000000	0.000000
1.673250	20.633716	0.000000	0.000000	0.000000	0.050000	0.000000	3.700000	13.997432	-10.000000	0.000000	-117.080388	14.655630	-5.000000	0.000000
1.678200	20.633716	0.000000	0.000000	0.000000	0.050000	0.000000	3.700000	14.588607	-10.000000	0.000000	-117.985796	15.669683	-5.000000	0.000000
1.683150	20.633716	0.000000	0.000000	0.000000	0.050000	0.000000	3.700000	15.017248	-10.000000	0.000000	-118.697465	16.506384	-5.000000	0.000000
1.688100	20.633716	0.000000	0.000000	0.000000	0.050000	0.000000	3.700000	15.251163	-10.000000	0.000000	-119.179813	17.183419	-5.000000	0.000000
1.693050	20.633716	0.000000	0.000000	0.000000	0.050000	0.000000	3.700000	15.394015	-10.000000	0.000000	-119.532912	17.765834	-5.000000	0.000000
1.698000	20.633716	0.000000	0.000000	0.000000	0.050000	0.000000	3.700000	15.457337	-10.000000	0.000000	-119.773885	18.324225	-5.000000	0.000000
1.702950	20.633716	0.000000	0.000000	0.000000	0.050000	0.000000	3.700000	15.464415	-10.000000	0.000000	-119.923846	18.929845	-5.000000	0.000000
1.707900	20.633716	0.000000	0.000000	0.000000	0.050000	0.000000	3.700000	15.409352	-10.000000	0.000000	-119.971437	19.626257	-5.000000	0.000000
1.712850	20.633716	0.000000	0.000000	0.000000	0.050000	0.000000	3.700000	15.305632	-10.000000	0.000000	-119.927846	20.411641	-5.000000	0.000000
1.717800	20.633716	0.000000	0.000000	0.000000	0.050000	0.000000	3.700000	15.165285	-10.000000	0.000000	-119.809862	21.230177	-5.000000	0.000000
1.722750	20.633716	0.000000	0.000000	0.000000	0.050000	0.000000	3.700000	14.993484	-10.000000	0.000000	-119.634462	22.078043	-5.000000	0.000000
1.727700	20.633716	0.000000	0.000000	0.000000	0.050000	0.000000	3.700000	14.794241	-10.000000	0.000000	-119.413498	22.587425	-5.000000	0.000000
1.732650	20.633716	0.000000	0.000000	0.000000	0.050000	0.000000	3.700000	14.576013	-10.000000	0.000000	-119.160685	22.570295	-5.000000	0.000000
1.737600	20.633716	0.000000	0.000000	0.000000	0.050000	0.000000	3.700000	14.316762	-10.000000	0.000000	-118.859070	22.476543	-5.000000	0.000000
1.742550	20.633716	0.000000	0.000000	0.000000	0.050000	0.000000	3.700000	14.006768	-10.000000	0.000000	-118.490179	22.251451	-5.000000	0.000000
1.747500	20.633716	0.000000	0.000000	0.000000	0.050000	0.000000	3.700000	13.625165	-10.000000	0.000000	-118.036946	21.979719	-5.000000	0.000000
1.752450	20.633716	0.000000	0.000000	0.000000	0.050000	0.000000	3.700000	13.152737	-10.000000	0.000000	-117.478171	21.581335	-5.000000	0.000000
1.757400	20.633716	0.000000	0.000000	0.000000	0.050000	0.000000	3.700000	12.564620	-10.000000	0.000000	-116.791843	21.077118	-5.000000	0.000000
1.762350	20.633716	0.000000	0.000000	0.000000	0.050000	0.000000	3.700000	11.848473	-10.000000	0.000000	-115.960805	20.394333	-5.000000	0.000000
1.767300	20.633716	0.000000	0.000000	0.000000	0.050000	0.000000	3.700000	10.987674	-10.000000	0.000000	-114.962776	19.529565	-5.000000	0.000000
1.772250	20.633716	0.000000	0.000000	0.000000	0.050000	0.000000	3.700000	9.962767	-10.000000	0.000000	-113.773171	18.428019	-5.000000	0.000000
1.777200	20.633716	0.000000	0.000000	0.000000	0.050000	0.000000	3.700000	8.771488	-10.000000	0.000000	-112.404931	16.990385	-5.000000	0.000000
1.782150	20.633716	0.000000	0.000000	0.000000	0.050000	0.000000	3.700000	7.406651	-10.000000	0.000000	-110.848014	15.211169	-5.000000	0.000000
1.787100	20.633716	0.000000	0.000000	0.000000	0.050000	0.000000	3.700000	5.862173	-10.000000	0.000000	-109.098411	13.154789	-5.000000	0.000000
1.792050	20.633716	0.000000	0.000000	0.000000	0.050000	0.000000	3.700000	4.129117	-10.000000	0.000000	-107.139215	10.851966	-5.000000	0.000000
1.797000	20.633716	0.000000	0.000000	0.000000	0.050000	0.000000	3.700000	2.194982	-10.000000	0.000000	-104.943779	8.296446	-5.000000	0.000000
1.801950	20.633716	0.000000	0.000000	0.000000	0.050000	0.000000	3.700000	0.044122	-10.000000	0.000000	-102.479665	5.472701	-5.000000	0.000000
1.806900	20.633716	0.000000	0.000000	0.000000	0.050000	0.000000	3.700000	-2.350040	-10.000000	0.000000	-99.683751	2.343258	-5.000000	0.000000
1.811850	20.633716	0.000000	0.000000	0.000000	0.050000	0.000000	3.700000	-4.998255	-10.000000	0.000000	-96.578026	-1.073464	-5.000000	0.000000
1.816800	20.633716	0.000000	0.000000	0.000000	0.050000	0.000000	3.700000	-7.912540	-10.000000	0.000000	-93.164520	-4.785415	-5.000000	0.000000
1.821750	20.633716	0.000000	0.000000	0.000000	0.050000	0.000000	3.700000	-8.660906	-10.000000	0.000000	-91.334334	-7.384682	-5.000000	0.000000
1.826700	20.633716	0.000000	0.000000	0.000000	0.050000	0.000000	3.700000	-8.500000	-10.000000	0.000000	-91.332229	-9.482289	-5.000000	0.000000
1.831650	20.633716	0.000000	0.000000	0.000000	0.050000	0.000000	3.700000	-8.808192	-10.000000	0.000000	-91.412553	-11.732020	-5.000000	0.000000
1.836600	20.633716	0.000000	0.000000	0.000000	0.050000	0.000000	3.700000	-8.624396	-10.000000	0.000000	-91.500000	-14.389348	-5.000000	0.000000
1.841550	20.633716	0.000000	0.000000	0.000000	0.050000	0.000000	3.700000	-8.515171	-10.000000	0.000000	-91.287855	-17.346241	-5.000000	0.000000
1.846500	20.633716	0.000000	0.000000	0.000000	0.050000	0.000000	3.700000	-8.981788	-10.000000	0.000000	-91.474927	-20.403679	-5.000000	0.000000
1.851450	20.633716	0.000000	0.000000	0.000000	0.050000	0.000000	3.700000	-8.730961	-10.000000	0.000000	-91.098963	-23.876983	-5.000000	0.000000
1.856400	20.633716	0.000000	0.000000	0.000000	0.050000	0.000000	3.700000	-8.560721	-10.000000	0.000000	-91.395001	-26.996092	-5.000000	0.000000
1.861350	20.633716	0.000000	0.000000	0.000000	0.050000	0.000000	3.700000	-8.500000	-10.000000	0.000000	-91.500000	-29.987316	-5.000000	0.000000
1.866300	20.633716	0.000000	0.000000	0.000000	0.050000	0.000000	3.700000	-8.838985	-10.000000	0.000000	-91.272477	-32.408197	-5.000000	0.000000
1.871250	20.633716	0.000000	0.000000	0.000000	0.050000	0.000000	3.700000	-8.618780	-10.000000	0.000000	-91.475469	-33.886078	-5.000000	0.000000
1.876200	20.633716	0.000000	0.000000	0.000000	0.050000	0.000000	3.700000	-8.512575	-10.000000	0.000000	-91.094013	-33.789239	-5.000000	0.000000
1.881150	20.633716	0.000000	0.000000	0.000000	0.050000	0.000000	3.700000	-8.769824	-10.000000	0.000000	-91.383525	-33.616000	-5.000000	0.000000
1.886100	20.633716	0.000000	0.000000	0.000000	0.050000	0.000000	3.700000	-8.957159	-10.000000	0.000000	-91.500000	-33.500000	-5.000000	0.000000
1.891050	20.633716	0.000000	0.000000	0.000000	0.050000	0.000000	3.700000	-8.500000	-10.000000	0.000000	-91.216903	-33.665322	-5.000000	0.000000
1.896000	20.633716	0.000000	0.000000	0.000000	0.050000	0.000000	3.700000	-8.510102	-10.000000	0.000000	-91.372403	-33.637752	-5.000000	0.000000
1.900950	20.633716	0.000000	0.000000	0.000000	0.050000	0.000000	3.700000	-8.500000	-10.000000	0.000000	-91.366987	-33.500000	-5.000000	0.000000
1.905900	20.633716	0.000000	0.000000	0.000000	0.050000	0.000000	3.700000	-8.799748	-10.000000	0.000000	-91.377348	-33.500000	-5.000000	0.000000
